<svg width="90" height="68" viewBox="0 0 90 68" fill="none" xmlns="http://www.w3.org/2000/svg">
<path d="M45.9949 6.98997C46.4149 7.31997 46.6549 7.82997 46.6549 8.36997V27.63H43.0849V10.65L39.4549 11.49V23.4H35.8849V11.49L32.2549 10.65V27.63H28.6849V10.17H26.6149V6.59997H30.9049V6.65998L37.6849 8.24997L44.4649 6.62997C45.0049 6.50998 45.5749 6.62997 45.9949 6.98997ZM54.1005 23.85L63.0705 25.89L62.2605 29.37L50.5605 26.7V22.62H49.4805V19.05H50.5305V17.01H49.4205V13.44H50.5305V11.73H54.1005V13.44H62.8605V17.01H61.6605V22.62H54.1005V23.85ZM54.1005 17.01V19.05H58.0905V17.01H54.1005ZM29.5949 35.6V53.3H31.6949V56.87H27.4049L20.5949 55.25L13.8149 56.87C13.6649 56.9 13.5449 56.93 13.3949 56.93C12.4049 56.93 11.6249 56.12 11.6249 55.13V35.6H15.1949L15.1649 52.88L18.8249 52.01V40.1H22.3949V52.01L26.0249 52.88V35.6H29.5949ZM38.0898 52.85L47.0598 54.89L46.2498 58.37L34.5498 55.7V51.62H33.4698V48.05H34.5198V46.01H33.4098V42.44H34.5198V40.73H38.0898V42.44H46.8498V46.01H45.6498V51.62H38.0898V52.85ZM38.0898 46.01V48.05H42.0798V46.01H38.0898ZM53.7343 52.85L62.7043 54.89L61.8943 58.37L50.1943 55.7V51.62H49.1143V48.05H50.1643V46.01H49.0543V42.44H50.1643V40.73H53.7343V42.44H62.4943V46.01H61.2943V51.62H53.7343V52.85ZM53.7343 46.01V48.05H57.7243V46.01H53.7343ZM69.7689 42.35L78.8889 42.38L78.7989 49.67C78.7689 53.48 75.6789 56.57 71.8689 56.57L67.9989 56.6L65.7489 58.01L63.8589 54.98L66.1989 53.51V35.54H69.7689V42.35ZM75.2289 49.64L75.2589 45.95L69.7689 45.92V53.03H71.8689C73.7289 53 75.2289 51.5 75.2289 49.64Z" fill="#00B7FF"/>
</svg>
