<svg width="68" height="53" viewBox="0 0 68 53" fill="none" xmlns="http://www.w3.org/2000/svg">
<path d="M34.9949 0.989974C35.4149 1.31997 35.6549 1.82997 35.6549 2.36997V21.63H32.0849V4.64998L28.4549 5.48998V17.4H24.8849V5.48998L21.2549 4.64998V21.63H17.6849V4.16997H15.6149V0.599974H19.9049V0.659975L26.6849 2.24997L33.4649 0.629974C34.0049 0.509975 34.5749 0.629974 34.9949 0.989974ZM18.5949 29.6V47.3H20.6949V50.87H16.4049L9.59488 49.25L2.81488 50.87C2.66488 50.9 2.54488 50.93 2.39488 50.93C1.40488 50.93 0.624883 50.12 0.624883 49.13V29.6H4.19488L4.16488 46.88L7.82488 46.01V34.1H11.3949V46.01L15.0249 46.88V29.6H18.5949Z" fill="#00B7FF"/>
<path d="M43.1005 17.85L52.0705 19.89L51.2605 23.37L39.5605 20.7V16.62H38.4805V13.05H39.5305V11.01H38.4205V7.43997H39.5305V5.72997H43.1005V7.43997H51.8605V11.01H50.6605V16.62H43.1005V17.85ZM43.1005 11.01V13.05H47.0905V11.01H43.1005ZM27.0898 46.85L36.0598 48.89L35.2498 52.37L23.5498 49.7V45.62H22.4698V42.05H23.5198V40.01H22.4098V36.44H23.5198V34.73H27.0898V36.44H35.8498V40.01H34.6498V45.62H27.0898V46.85ZM27.0898 40.01V42.05H31.0798V40.01H27.0898ZM42.7343 46.85L51.7043 48.89L50.8943 52.37L39.1943 49.7V45.62H38.1143V42.05H39.1643V40.01H38.0543V36.44H39.1643V34.73H42.7343V36.44H51.4943V40.01H50.2943V45.62H42.7343V46.85ZM42.7343 40.01V42.05H46.7243V40.01H42.7343ZM58.7689 36.35L67.8889 36.38L67.7989 43.67C67.7689 47.48 64.6789 50.57 60.8689 50.57L56.9989 50.6L54.7489 52.01L52.8589 48.98L55.1989 47.51V29.54H58.7689V36.35ZM64.2289 43.64L64.2589 39.95L58.7689 39.92V47.03H60.8689C62.7289 47 64.2289 45.5 64.2289 43.64Z" fill="white"/>
</svg>
