<svg width="32" height="25" viewBox="0 0 32 25" fill="none" xmlns="http://www.w3.org/2000/svg">
<path d="M31.2005 6.47053C30.8863 6.21247 30.5047 6.0465 30.0993 5.99156C29.6938 5.93662 29.2809 5.99492 28.9075 6.15981L21.9598 9.1995L17.9229 2.03934C17.73 1.70505 17.4505 1.42704 17.1128 1.23364C16.7751 1.04024 16.3914 0.938354 16.0007 0.938354C15.6099 0.938354 15.2262 1.04024 14.8885 1.23364C14.5509 1.42704 14.2713 1.70505 14.0784 2.03934L10.0415 9.1995L3.09384 6.15981C2.71968 5.99516 2.30618 5.93679 1.90007 5.99127C1.49396 6.04576 1.11145 6.21094 0.79576 6.46814C0.480073 6.72534 0.243808 7.0643 0.113674 7.44671C-0.0164598 7.82912 -0.0352734 8.23972 0.0593602 8.63209L3.54695 23.2631C3.61363 23.5464 3.73808 23.8134 3.91273 24.0479C4.08738 24.2825 4.30861 24.4797 4.56302 24.6276C4.90744 24.8305 5.30124 24.9379 5.70266 24.9384C5.8978 24.938 6.09192 24.9107 6.27935 24.8573C12.6364 23.128 19.3512 23.128 25.7082 24.8573C26.2887 25.0074 26.906 24.9248 27.4246 24.6276C27.6805 24.4816 27.903 24.2849 28.0778 24.0501C28.2527 23.8152 28.3762 23.5473 28.4406 23.2631L31.9419 8.63209C32.0355 8.23961 32.0157 7.8292 31.8846 7.44723C31.7536 7.06526 31.5166 6.72696 31.2005 6.47053Z" fill="#00B7FF"/>
</svg>
