<svg width="32" height="28" viewBox="0 0 32 28" fill="none" xmlns="http://www.w3.org/2000/svg">
<path d="M31.6669 5.49803L27.2442 9.88759C26.3655 20.0813 17.7251 28 7.40057 28C5.27708 28 3.51971 27.6646 2.18704 27.0083C1.11797 26.4688 0.678626 25.9 0.561468 25.725C0.464533 25.5784 0.402072 25.4119 0.378735 25.2379C0.355399 25.0639 0.37179 24.8869 0.426688 24.7201C0.481586 24.5533 0.573575 24.401 0.695801 24.2745C0.818027 24.148 0.967339 24.0506 1.13261 23.9896C1.1619 23.975 4.61807 22.6625 6.85872 20.1396C5.46914 19.1544 4.24778 17.9529 3.24146 16.5813C1.23513 13.8688 -0.888364 9.15843 0.38573 2.12929C0.425783 1.92032 0.521764 1.726 0.663538 1.56686C0.805312 1.40771 0.987614 1.28965 1.19119 1.22513C1.39542 1.15854 1.6141 1.14917 1.82332 1.19804C2.03254 1.24691 2.22423 1.35214 2.37742 1.50221C2.42135 1.56055 7.29806 6.34386 13.2585 7.88968V7.0001C13.2642 6.0751 13.4529 5.16029 13.8137 4.3079C14.1745 3.45551 14.7003 2.68223 15.3613 2.03222C16.0222 1.38221 16.8052 0.868194 17.6656 0.519529C18.526 0.170863 19.4469 -0.00562646 20.3758 0.000136722C21.595 0.0174517 22.7889 0.348942 23.8411 0.962311C24.8934 1.57568 25.7681 2.45001 26.3802 3.50012H30.8322C31.0635 3.4994 31.2898 3.56687 31.4827 3.69404C31.6755 3.8212 31.8263 4.00237 31.9159 4.2147C32.0003 4.43019 32.0217 4.66508 31.9777 4.89219C31.9336 5.1193 31.8259 5.32934 31.6669 5.49803Z" fill="#1DA1F2"/>
</svg>
